<?xml version="1.0" encoding="UTF-8"?><svg id="Layer_1" xmlns="http://www.w3.org/2000/svg" viewBox="0 0 402.29 167.25"><defs><style>.cls-1{fill:#fce7a1;}.cls-2{fill:#231f20;}.cls-3{fill:#e89ba9;}.cls-4{fill:#c7dbf1;}.cls-5{fill:#cbe2a6;}.cls-6{fill:#d53456;}.cls-7{fill:#faa53f;}.cls-8{fill:#c8add3;}.cls-9{fill:#9bcc52;}.cls-10{fill:#fecf99;}.cls-11{fill:#fbd422;}.cls-12{fill:#a26dae;}.cls-13{fill:#8bb9e3;}</style></defs><path class="cls-2" d="M.89,57.83h7.28c.49,0,.89.4.89.89v70.11c0,.49.4.89.89.89h43.4c.49,0,.89.4.89.89v6.59c0,.49-.4.89-.89.89H.89c-.49,0-.89-.4-.89-.89V58.73c0-.49.4-.89.89-.89Z"/><path class="cls-2" d="M60.2,120.9v-.23c0-12.73,10.32-19.38,25.34-19.38,7.57,0,12.84,1.03,18.12,2.52v-1.84c0-10.55-6.42-16.05-17.54-16.05-6.63,0-11.91,1.54-17.13,3.85-.47.21-1.02-.02-1.2-.5l-2.02-5.55c-.16-.44.05-.94.48-1.13,6.27-2.79,12.42-4.7,20.79-4.7s14.91,2.29,19.15,6.54c4.13,4.13,6.19,9.86,6.19,17.43v35.34c0,.49-.4.89-.89.89h-6.93c-.49,0-.89-.4-.89-.89v-5.53c0-.81-.99-1.19-1.54-.6-4.2,4.52-10.56,8.29-19.79,8.29-11.12,0-22.13-6.31-22.13-18.46ZM103.78,116.31v-4.83c0-.4-.26-.75-.64-.86-4.27-1.2-9.8-2.34-16.67-2.34-11.01,0-17.32,4.82-17.32,11.93v.23c0,7.45,6.88,11.81,14.91,11.81,10.89,0,19.72-6.53,19.72-15.94Z"/><path class="cls-2" d="M126.8,78.82h7.05c.49,0,.89.4.89.89v6.3c0,.86,1.08,1.21,1.6.53,3.75-4.91,8.87-8.98,17.55-8.98s15.01,4.51,18.37,10.53c.32.57,1.12.58,1.5.04,4.23-5.95,10.37-10.58,20.03-10.58,13.65,0,22.02,9.17,22.02,23.85v35.8c0,.49-.4.89-.89.89h-7.05c-.49,0-.89-.4-.89-.89v-33.74c0-11.47-5.73-17.89-15.37-17.89-8.94,0-16.4,6.65-16.4,18.35v33.28c0,.49-.4.89-.89.89h-6.93c-.49,0-.89-.4-.89-.89v-33.97c0-11.12-5.85-17.66-15.25-17.66s-16.51,7.8-16.51,18.69v32.94c0,.49-.4.89-.89.89h-7.05c-.49,0-.89-.4-.89-.89v-57.5c0-.49.4-.89.89-.89Z"/><path class="cls-2" d="M226.62,120.9v-.23c0-12.73,10.32-19.38,25.34-19.38,7.57,0,12.84,1.03,18.12,2.52v-1.84c0-10.55-6.42-16.05-17.54-16.05-6.63,0-11.91,1.54-17.13,3.85-.47.21-1.02-.02-1.2-.5l-2.02-5.55c-.16-.44.05-.94.48-1.13,6.27-2.79,12.42-4.7,20.79-4.7s14.91,2.29,19.15,6.54c4.13,4.13,6.19,9.86,6.19,17.43v35.34c0,.49-.4.89-.89.89h-6.93c-.49,0-.89-.4-.89-.89v-5.53c0-.81-.99-1.19-1.54-.6-4.2,4.52-10.56,8.29-19.79,8.29-11.12,0-22.13-6.31-22.13-18.46ZM270.19,116.31v-4.83c0-.4-.26-.75-.64-.86-4.27-1.2-9.8-2.34-16.67-2.34-11.01,0-17.32,4.82-17.32,11.93v.23c0,7.45,6.88,11.81,14.91,11.81,10.89,0,19.72-6.53,19.72-15.94Z"/><path class="cls-2" d="M289.78,132.23l37.87-44.49c.49-.58.08-1.47-.68-1.47h-35.13c-.49,0-.89-.4-.89-.89v-5.67c0-.49.4-.89.89-.89h48.21c.49,0,.89.4.89.89v4.4c0,.21-.08.42-.21.58l-37.98,44.49c-.49.58-.08,1.47.68,1.47h36.62c.49,0,.89.4.89.89v5.67c0,.49-.4.89-.89.89h-49.59c-.49,0-.89-.4-.89-.89v-4.4c0-.21.08-.42.21-.58Z"/><path class="cls-2" d="M376.04,131.8c7.81,0,13.41-3.06,18.1-7.76.33-.34.87-.36,1.22-.04l4.2,3.76c.37.33.4.92.06,1.28-5.85,6.28-12.95,10.45-23.81,10.45-16.28,0-29.58-12.5-29.58-30.96,0-17.2,12.04-30.96,28.44-30.96,17.54,0,27.64,13.99,27.64,31.42,0,.62,0,1.32-.05,2.24-.03.47-.42.85-.89.85h-45.17c-.54,0-.97.48-.89,1.01,1.64,11.88,10.6,18.71,20.75,18.71ZM392.35,104.96c.53,0,.96-.47.89-1-1.31-10.34-7.48-18.95-18.81-18.95-9.9,0-17.53,7.99-19.13,18.93-.08.54.35,1.02.89,1.02h36.16Z"/><path class="cls-4" d="M11.98,17.19c4.38,1.21,7.13,5.45,5.91,9.83s-5.91,7.21-10.3,5.99c-4.38-1.21-6.67-5.98-5.46-10.36,1.21-4.38,5.46-6.68,9.84-5.46Z"/><path class="cls-5" d="M74.14,12.03c5.71,3.3,7.82,11.09,4.53,16.8-3.3,5.71-10.67,7.02-16.38,3.73-5.71-3.3-7.48-9.89-4.18-15.6s10.32-8.22,16.03-4.93Z"/><path class="cls-10" d="M148.57,15.62c3.18,2.8,6.02,5.93,6.27,9.84.25,3.92-2.03,7.5-4.83,10.68-2.8,3.18-6.1,5.15-10.02,5.41s-7.88-.79-11.06-3.58-5.33-6.55-5.58-10.47c-.25-3.92,1.83-7.53,4.63-10.71,2.8-3.18,6.09-6.04,10.01-6.3,3.92-.25,7.4,2.33,10.58,5.13Z"/><path class="cls-3" d="M197.19,12.1c2.46-4.26,7.04-7.54,11.45-8.72,4.41-1.18,9.43.38,13.69,2.84,4.26,2.46,6.23,6.54,7.41,10.94,1.18,4.41.78,8.49-1.68,12.75-2.46,4.26-5.7,7.02-10.11,8.2s-9.44,1.88-13.7-.58c-4.26-2.46-5.98-7.22-7.16-11.63-1.18-4.41-2.36-9.55.11-13.82Z"/><path class="cls-1" d="M394.83,8.7c2.54,3.41,4.27,7.59,4.73,11.53.48,4.06-.91,8.29-2.53,12.05-1.56,3.65-3.78,7.33-7.19,9.88-3.41,2.54-7.5,4.3-11.44,4.76s-7.91-1.65-11.67-3.26c-3.65-1.56-7.17-3.33-9.71-6.74s-3.53-7.25-4-11.19c-.48-4.06-.19-7.99,1.42-11.75s3.74-7.11,7.15-9.65c3.41-2.54,7.34-3.74,11.28-4.2,4.06-.48,7.91.48,11.67,2.09s7.74,3.07,10.28,6.48Z"/><path class="cls-13" d="M17.95,24.71c0,4.21-3.83,7.39-8.04,7.39s-7.49-3.18-7.49-7.39,3.28-7.72,7.49-7.72,8.04,3.51,8.04,7.72Z"/><path class="cls-9" d="M79.06,22.67c0,6.06-5,11.34-11.06,11.34s-11.24-5.27-11.24-11.34,5.18-11.59,11.24-11.59,11.06,5.53,11.06,11.59Z"/><path class="cls-7" d="M153.47,26.49c0,3.83-1.61,7.82-4.12,10.33s-6.5,3.33-10.33,3.33-7.63-1.01-10.14-3.52-3-6.3-3-10.14.96-7.16,3.47-9.67,5.84-4.83,9.67-4.83,7.82,1.65,10.33,4.16c2.51,2.51,4.11,6.5,4.11,10.33Z"/><path class="cls-6" d="M229.36,21.52c0,4.57-1.04,8.84-4.04,11.83-3,3-7.26,5.31-11.83,5.31s-8.41-2.73-11.41-5.73-6.05-6.84-6.05-11.41,3.11-8.35,6.11-11.35,6.78-4.91,11.35-4.91,8.86,1.41,11.85,4.41c3,3,4.02,7.28,4.02,11.85Z"/><path class="cls-11" d="M396.6,23.06c0,3.91-.61,7.57-2.44,10.73-1.88,3.26-4.93,5.39-8.19,7.28s-6.49,4.21-10.39,4.21-7.29-2.29-10.45-4.12c-3.26-1.88-6.85-3.77-8.73-7.03s-1.6-7.17-1.6-11.07.59-7.44,2.42-10.6,4.32-6.2,7.57-8.08c3.16-1.83,6.88-2.49,10.78-2.49s7.87.24,11.03,2.07c3.26,1.88,5.65,5.13,7.53,8.39s2.46,6.81,2.46,10.71Z"/><path class="cls-8" d="M278.97,11.4c2.75-2.75,6.5-3.28,10.01-4.22s7.34-3.01,10.96-2.04c3.51.94,7.37,2.85,10.12,5.6,2.75,2.75,2.97,7.07,3.91,10.57s2,7.26,1.03,10.88-2.21,7.52-4.96,10.27c-2.75,2.75-6.91,3.49-10.42,4.43-3.62.97-7.11.42-10.72-.55-3.51-.94-6.57-2.37-9.32-5.12-2.75-2.75-4.78-5.66-5.72-9.16-.97-3.62-.83-7.24.13-10.86s2.23-7.05,4.98-9.8Z"/><path class="cls-12" d="M314.72,26.61c0,3.78-.66,7.4-2.43,10.46-1.82,3.15-4.9,5.16-8.05,6.98-3.05,1.77-6.29,3.4-10.06,3.4s-7.21-1.29-10.26-3.06c-3.15-1.82-6.89-3.67-8.72-6.82s-1.79-7.18-1.79-10.96,1.17-7.25,2.93-10.3c1.82-3.15,3.95-6.48,7.1-8.3s6.96-1.65,10.74-1.65,7.4.39,10.45,2.15,5.75,4.55,7.57,7.69,2.51,6.63,2.51,10.4Z"/><path class="cls-2" d="M1.88,155.23h2.08v11.82H1.88v-11.82Z"/><path class="cls-2" d="M28.12,155.23h1.92l6.33,8.17v-8.17h2.04v11.82h-1.74l-6.52-8.41v8.41h-2.04v-11.82Z"/><path class="cls-2" d="M65.17,157.15h-3.75v-1.93h9.59v1.93h-3.75v9.89h-2.09v-9.89Z"/><path class="cls-2" d="M94.03,155.23h8.76v1.86h-6.68v3.07h5.92v1.86h-5.92v3.17h6.77v1.86h-8.85v-11.82Z"/><path class="cls-2" d="M126.41,155.23h5.27c1.49,0,2.65.44,3.41,1.18.62.64.98,1.52.98,2.55v.03c0,1.94-1.16,3.11-2.82,3.58l3.19,4.47h-2.45l-2.9-4.12h-2.6v4.12h-2.08v-11.82ZM131.53,161.08c1.49,0,2.43-.78,2.43-1.97v-.04c0-1.27-.91-1.96-2.45-1.96h-3.02v3.97h3.04Z"/><path class="cls-2" d="M159.66,155.23h1.92l6.33,8.17v-8.17h2.04v11.82h-1.74l-6.52-8.41v8.41h-2.04v-11.82Z"/><path class="cls-2" d="M198.08,155.14h1.92l5.2,11.9h-2.19l-1.2-2.85h-5.59l-1.22,2.85h-2.13l5.2-11.9ZM201.05,162.35l-2.04-4.73-2.03,4.73h4.07Z"/><path class="cls-2" d="M229.63,157.15h-3.75v-1.93h9.59v1.93h-3.75v9.89h-2.09v-9.89Z"/><path class="cls-2" d="M258.54,155.23h2.08v11.82h-2.08v-11.82Z"/><path class="cls-2" d="M284.18,161.17v-.03c0-3.33,2.57-6.11,6.2-6.11s6.16,2.75,6.16,6.08v.04c0,3.32-2.57,6.11-6.2,6.11s-6.16-2.75-6.16-6.08ZM294.36,161.17v-.03c0-2.3-1.67-4.2-4.02-4.2s-3.98,1.88-3.98,4.17v.04c0,2.3,1.67,4.2,4.02,4.2s3.98-1.87,3.98-4.17Z"/><path class="cls-2" d="M320.09,155.23h1.92l6.33,8.17v-8.17h2.04v11.82h-1.74l-6.52-8.41v8.41h-2.04v-11.82Z"/><path class="cls-2" d="M358.51,155.14h1.92l5.2,11.9h-2.19l-1.2-2.85h-5.59l-1.22,2.85h-2.13l5.2-11.9ZM361.48,162.35l-2.04-4.73-2.03,4.73h4.07Z"/><path class="cls-2" d="M388.56,155.23h2.08v9.93h6.21v1.89h-8.29v-11.82Z"/></svg>