<?xml version="1.0" encoding="utf-8"?>
<!-- Generator: Adobe Illustrator 24.0.1, SVG Export Plug-In . SVG Version: 6.00 Build 0)  -->
<svg version="1.1" id="Capa_1" xmlns="http://www.w3.org/2000/svg" xmlns:xlink="http://www.w3.org/1999/xlink" x="0px" y="0px"
	 viewBox="0 0 875.96 193.49" style="enable-background:new 0 0 875.96 193.49;" xml:space="preserve">
<style type="text/css">
	.st0{fill-rule:evenodd;clip-rule:evenodd;fill:#B2833C;}
	.st1{fill:#B2833C;}
	.st2{fill:#FFFFFF;}
</style>
<g>
	<g>
		<g>
			<g>
				<path class="st0" d="M846.31,146.8c4.61-8.21,9.55-17.25,10.57-27.06c1.65-15.83-3.23-25.71-8.51-33.51
					c-3.66-5.41-7.19-10.47-10.82-16.5c-7.07-11.75-12.02-25.93-12.89-41.75c-0.1-1.78,1.25-13.18-2.58-9.8
					c-3,31.28,11.02,51.15,23.2,69.34c4.29,6.4,8.39,13.16,9.02,22.43c1.09,16.26-5.91,27.67-11.85,38.4
					c-5.43,9.78-11.74,18.63-17.02,27.59C834.76,168.56,839.81,158.38,846.31,146.8z M763.05,22.82c-3.09,3.25-5.7,10.19-4.64,15.98
					c1.08,5.94,7.68,8.47,10.57,11.86c4.09,4.8,2.39,11.6,5.15,17.53c2.63,5.62,8.42,7.17,12.9,10.57
					c4.31,3.27,7.81,8.43,8.76,15.46c1.27,9.37-2.18,16.74-5.41,23.45c-2.3,4.79-4.56,9.7-6.7,14.18
					c-4.6,9.63-9.43,16.73-11.86,29.65c3.77-2.9,4.72-7.77,6.7-12.38c3.26-7.61,6.42-14.07,10.31-21.65
					c5.45-10.62,11.22-20.01,10.31-32.48c-0.42-5.77-2.79-10.88-5.41-14.18c-4.14-5.18-12.02-6.75-15.74-12.62
					c-3.17-5.02-1.64-13.46-5.14-18.05c-4.48-5.87-14.03-8.19-10.83-19.34c0.91-3.15,3.74-5.51,3.09-8.5
					C763.88,21.6,763.63,22.22,763.05,22.82z M825.18,95.51c0.87-14.5-7.42-21.6-17.53-24.74c-5.35-1.67-11.63-2.19-15.72-5.15
					c-3.74-2.72-4.73-8.79-7.48-12.12c-0.17,0-0.34,0-0.51,0c-0.53,0.08-0.51,0.69-1.03,0.77c1.33,4.93,3.33,10.26,6.96,13.41
					c6.52,5.64,16.13,4.55,23.45,8.5c8.02,4.34,11.46,16.97,7.48,27.33c-0.64,1.65-2.87,3.76-0.77,5.67
					C823.96,106.43,824.88,100.51,825.18,95.51z M785.21,168.97c5.83-2.32,7.29-8.2,9.8-14.44c5.01-12.46,11.36-25.02,17.79-35.57
					c-0.34-0.02-0.36-0.33-0.78-0.25C799.21,131.59,794.13,152.19,785.21,168.97z"/>
			</g>
			<g>
				<path class="st0" d="M825.43,175.93c5.28-8.96,11.58-17.81,17.02-27.59c5.94-10.73,12.94-22.14,11.85-38.4
					c-0.62-9.27-4.73-16.02-9.02-22.43c-12.18-18.19-26.2-38.06-23.2-69.34c3.83-3.37,2.48,8.02,2.58,9.8
					c0.87,15.82,5.81,30,12.89,41.75c3.63,6.03,7.16,11.09,10.82,16.5c5.28,7.8,10.17,17.68,8.51,33.51
					c-1.02,9.82-5.96,18.86-10.57,27.06C839.81,158.38,834.76,168.56,825.43,175.93z"/>
			</g>
			<g>
				<path class="st0" d="M765.11,22.31c0.65,2.99-2.18,5.34-3.09,8.5c-3.2,11.15,6.35,13.47,10.83,19.34
					c3.5,4.59,1.97,13.02,5.14,18.05c3.72,5.87,11.59,7.44,15.74,12.62c2.62,3.31,4.99,8.42,5.41,14.18
					c0.91,12.47-4.87,21.86-10.31,32.48c-3.89,7.57-7.05,14.03-10.31,21.65c-1.98,4.61-2.93,9.47-6.7,12.38
					c2.43-12.91,7.26-20.02,11.86-29.65c2.14-4.48,4.4-9.39,6.7-14.18c3.23-6.71,6.69-14.09,5.41-23.45
					c-0.95-7.02-4.45-12.18-8.76-15.46c-4.48-3.4-10.27-4.95-12.9-10.57c-2.76-5.94-1.06-12.73-5.15-17.53
					c-2.89-3.39-9.49-5.92-10.57-11.86c-1.05-5.79,1.55-12.73,4.64-15.98C763.63,22.22,763.88,21.6,765.11,22.31z"/>
			</g>
			<g>
				<path class="st0" d="M820.02,109.17c-2.1-1.91,0.13-4.02,0.77-5.67c3.99-10.36,0.54-22.99-7.48-27.33
					c-7.32-3.95-16.93-2.86-23.45-8.5c-3.63-3.15-5.63-8.48-6.96-13.41c0.53-0.08,0.5-0.69,1.03-0.77c0.17,0,0.34,0,0.51,0
					c2.75,3.32,3.74,9.39,7.48,12.12c4.09,2.96,10.37,3.49,15.72,5.15c10.11,3.15,18.39,10.24,17.53,24.74
					C824.88,100.51,823.96,106.43,820.02,109.17z"/>
			</g>
			<g>
				<path class="st0" d="M812.03,118.71c0.42-0.08,0.44,0.24,0.78,0.25c-6.43,10.55-12.79,23.11-17.79,35.57
					c-2.51,6.24-3.97,12.12-9.8,14.44C794.13,152.19,799.21,131.59,812.03,118.71z"/>
			</g>
		</g>
	</g>
	<g>
		<path class="st1" d="M36.37,110.34h20.77v10.39H23.36V64.68h13V110.34z"/>
		<path class="st1" d="M79.52,80.22c3.03,0,5.78,0.48,8.27,1.42c2.49,0.95,4.62,2.31,6.4,4.08c1.78,1.77,3.17,3.92,4.15,6.44
			c0.99,2.53,1.48,5.37,1.48,8.52c0,3.18-0.49,6.04-1.48,8.6c-0.99,2.55-2.37,4.72-4.15,6.5c-1.78,1.78-3.92,3.15-6.4,4.12
			c-2.49,0.96-5.24,1.44-8.27,1.44c-3.05,0-5.83-0.48-8.33-1.44c-2.5-0.96-4.65-2.33-6.46-4.12c-1.81-1.78-3.21-3.95-4.19-6.5
			c-0.99-2.55-1.48-5.42-1.48-8.6c0-3.15,0.49-5.99,1.48-8.52c0.99-2.53,2.38-4.67,4.19-6.44c1.81-1.77,3.96-3.13,6.46-4.08
			C73.7,80.69,76.47,80.22,79.52,80.22z M79.52,112.49c2.74,0,4.76-0.97,6.06-2.9c1.29-1.94,1.94-4.88,1.94-8.83
			s-0.65-6.89-1.94-8.81c-1.3-1.92-3.31-2.88-6.06-2.88c-2.82,0-4.89,0.96-6.19,2.88c-1.31,1.92-1.96,4.86-1.96,8.81
			s0.65,6.89,1.96,8.83C74.64,111.52,76.7,112.49,79.52,112.49z"/>
		<path class="st1" d="M101.76,80.83h9.54c0.85,0,1.58,0.19,2.19,0.58c0.62,0.38,0.99,0.88,1.12,1.5l4,17.89
			c0.31,1.36,0.59,2.68,0.85,3.96c0.26,1.28,0.49,2.55,0.69,3.81c0.36-1.26,0.74-2.52,1.13-3.79c0.4-1.27,0.79-2.6,1.17-3.98
			l5-17.92c0.15-0.59,0.52-1.08,1.12-1.48c0.59-0.4,1.27-0.6,2.04-0.6h5.31c0.85,0,1.57,0.2,2.17,0.6s0.98,0.89,1.13,1.48
			l4.77,17.92c0.36,1.36,0.72,2.68,1.1,3.96s0.72,2.58,1.06,3.88c0.21-1.28,0.46-2.56,0.75-3.83c0.29-1.27,0.61-2.61,0.94-4.02
			l4.23-17.89c0.13-0.62,0.49-1.12,1.1-1.5s1.29-0.58,2.06-0.58h9.08l-12.39,39.89h-9.69c-0.51,0-0.95-0.15-1.31-0.46
			c-0.36-0.31-0.64-0.82-0.85-1.54l-5.69-19.89c-0.26-0.9-0.5-1.78-0.73-2.65c-0.23-0.87-0.44-1.74-0.62-2.62
			c-0.18,0.9-0.38,1.79-0.6,2.67c-0.22,0.88-0.47,1.78-0.75,2.67l-5.77,19.81c-0.38,1.33-1.23,2-2.54,2h-9.23L101.76,80.83z"/>
		<path class="st1" d="M196.76,101.99v18.73h-13V64.68h19.77c3.95,0,7.34,0.47,10.17,1.4c2.83,0.94,5.17,2.23,7,3.87
			s3.19,3.58,4.06,5.81c0.87,2.23,1.31,4.64,1.31,7.23c0,2.8-0.45,5.36-1.35,7.69c-0.9,2.33-2.27,4.33-4.12,6
			c-1.85,1.67-4.19,2.97-7.02,3.9c-2.83,0.94-6.19,1.4-10.06,1.4H196.76z M196.76,92.18h6.77c3.38,0,5.82-0.81,7.31-2.42
			c1.49-1.62,2.23-3.87,2.23-6.77c0-1.28-0.19-2.45-0.58-3.5c-0.38-1.05-0.97-1.96-1.75-2.71c-0.78-0.76-1.77-1.34-2.96-1.75
			c-1.19-0.41-2.61-0.62-4.25-0.62h-6.77V92.18z"/>
		<path class="st1" d="M232.84,120.72V80.83h7.08c0.59,0,1.08,0.05,1.48,0.15s0.73,0.26,1,0.48c0.27,0.22,0.47,0.51,0.62,0.87
			c0.14,0.36,0.26,0.79,0.37,1.31l0.65,3.73c1.46-2.26,3.1-4.04,4.92-5.35c1.82-1.31,3.81-1.96,5.96-1.96
			c1.82,0,3.28,0.44,4.39,1.31l-1.54,8.77c-0.1,0.54-0.31,0.92-0.62,1.13c-0.31,0.22-0.72,0.33-1.23,0.33
			c-0.44,0-0.95-0.06-1.54-0.17s-1.33-0.17-2.23-0.17c-3.13,0-5.59,1.67-7.38,5v24.46H232.84z"/>
		<path class="st1" d="M281.69,80.22c2.64,0,5.06,0.41,7.25,1.23c2.19,0.82,4.08,2.01,5.65,3.58s2.81,3.48,3.69,5.75
			s1.33,4.84,1.33,7.71c0,0.9-0.04,1.63-0.12,2.19c-0.08,0.56-0.22,1.01-0.42,1.35c-0.21,0.33-0.48,0.56-0.83,0.69
			c-0.35,0.13-0.79,0.19-1.33,0.19h-23c0.38,3.33,1.4,5.75,3.04,7.25c1.64,1.5,3.76,2.25,6.35,2.25c1.38,0,2.58-0.17,3.58-0.5
			c1-0.33,1.89-0.71,2.67-1.12c0.78-0.41,1.5-0.78,2.15-1.12c0.65-0.33,1.34-0.5,2.06-0.5c0.95,0,1.67,0.35,2.15,1.04l3.46,4.27
			c-1.23,1.41-2.56,2.56-3.98,3.44c-1.42,0.88-2.88,1.58-4.38,2.08c-1.5,0.5-3,0.85-4.5,1.04s-2.93,0.29-4.29,0.29
			c-2.79,0-5.42-0.46-7.87-1.37c-2.45-0.91-4.59-2.26-6.42-4.06c-1.83-1.79-3.28-4.03-4.35-6.69c-1.06-2.67-1.6-5.77-1.6-9.31
			c0-2.67,0.46-5.19,1.37-7.58s2.22-4.47,3.92-6.27c1.71-1.79,3.77-3.22,6.19-4.27C275.9,80.74,278.64,80.22,281.69,80.22z
			 M281.92,88.45c-2.28,0-4.06,0.65-5.35,1.94c-1.28,1.3-2.13,3.16-2.54,5.6h14.89c0-0.95-0.12-1.87-0.37-2.77
			c-0.24-0.9-0.64-1.7-1.19-2.4c-0.55-0.71-1.28-1.28-2.17-1.71C284.29,88.67,283.21,88.45,281.92,88.45z"/>
		<path class="st1" d="M330.85,89.56c-0.31,0.49-0.63,0.83-0.98,1.04c-0.35,0.21-0.79,0.31-1.33,0.31c-0.56,0-1.13-0.12-1.69-0.37
			c-0.56-0.24-1.17-0.51-1.83-0.79c-0.65-0.28-1.39-0.54-2.21-0.79c-0.82-0.24-1.76-0.37-2.81-0.37c-1.51,0-2.67,0.29-3.48,0.87
			c-0.81,0.58-1.21,1.38-1.21,2.4c0,0.74,0.26,1.36,0.79,1.85s1.22,0.92,2.1,1.29c0.87,0.37,1.86,0.72,2.96,1.06
			c1.1,0.33,2.23,0.71,3.38,1.12c1.15,0.41,2.28,0.89,3.38,1.44c1.1,0.55,2.09,1.23,2.96,2.04c0.87,0.81,1.57,1.79,2.1,2.94
			c0.53,1.15,0.79,2.54,0.79,4.15c0,1.98-0.36,3.8-1.08,5.46c-0.72,1.67-1.79,3.1-3.21,4.31c-1.42,1.21-3.18,2.14-5.27,2.81
			c-2.09,0.67-4.49,1-7.21,1c-1.36,0-2.72-0.13-4.08-0.38c-1.36-0.26-2.67-0.6-3.94-1.04c-1.27-0.44-2.44-0.96-3.52-1.56
			c-1.08-0.6-2-1.25-2.77-1.94l2.77-4.39c0.33-0.51,0.73-0.92,1.19-1.21c0.46-0.29,1.06-0.44,1.81-0.44c0.69,0,1.31,0.15,1.87,0.46
			c0.55,0.31,1.15,0.64,1.79,1c0.64,0.36,1.39,0.69,2.25,1c0.86,0.31,1.94,0.46,3.25,0.46c0.92,0,1.71-0.1,2.35-0.29
			c0.64-0.19,1.15-0.46,1.54-0.79c0.38-0.33,0.67-0.71,0.85-1.12c0.18-0.41,0.27-0.83,0.27-1.27c0-0.79-0.27-1.45-0.81-1.96
			c-0.54-0.51-1.24-0.96-2.12-1.33c-0.87-0.37-1.87-0.72-2.98-1.04c-1.12-0.32-2.25-0.69-3.4-1.1c-1.15-0.41-2.29-0.9-3.4-1.48
			s-2.11-1.31-2.98-2.19s-1.58-1.97-2.12-3.25c-0.54-1.28-0.81-2.83-0.81-4.65c0-1.69,0.33-3.3,0.98-4.83
			c0.65-1.53,1.63-2.87,2.94-4.02c1.31-1.15,2.95-2.07,4.92-2.75c1.97-0.68,4.28-1.02,6.92-1.02c1.44,0,2.83,0.13,4.17,0.38
			c1.35,0.26,2.61,0.62,3.79,1.08s2.26,1.01,3.23,1.63c0.97,0.63,1.83,1.31,2.58,2.06L330.85,89.56z"/>
		<path class="st1" d="M364.7,89.56c-0.31,0.49-0.63,0.83-0.98,1.04c-0.35,0.21-0.79,0.31-1.33,0.31c-0.56,0-1.13-0.12-1.69-0.37
			c-0.56-0.24-1.17-0.51-1.83-0.79c-0.65-0.28-1.39-0.54-2.21-0.79c-0.82-0.24-1.76-0.37-2.81-0.37c-1.51,0-2.67,0.29-3.48,0.87
			c-0.81,0.58-1.21,1.38-1.21,2.4c0,0.74,0.26,1.36,0.79,1.85s1.22,0.92,2.1,1.29c0.87,0.37,1.86,0.72,2.96,1.06
			c1.1,0.33,2.23,0.71,3.38,1.12c1.15,0.41,2.28,0.89,3.38,1.44c1.1,0.55,2.09,1.23,2.96,2.04c0.87,0.81,1.57,1.79,2.1,2.94
			c0.53,1.15,0.79,2.54,0.79,4.15c0,1.98-0.36,3.8-1.08,5.46c-0.72,1.67-1.79,3.1-3.21,4.31c-1.42,1.21-3.18,2.14-5.27,2.81
			c-2.09,0.67-4.49,1-7.21,1c-1.36,0-2.72-0.13-4.08-0.38c-1.36-0.26-2.67-0.6-3.94-1.04c-1.27-0.44-2.44-0.96-3.52-1.56
			c-1.08-0.6-2-1.25-2.77-1.94l2.77-4.39c0.33-0.51,0.73-0.92,1.19-1.21c0.46-0.29,1.06-0.44,1.81-0.44c0.69,0,1.31,0.15,1.87,0.46
			c0.55,0.31,1.15,0.64,1.79,1c0.64,0.36,1.39,0.69,2.25,1c0.86,0.31,1.94,0.46,3.25,0.46c0.92,0,1.71-0.1,2.35-0.29
			c0.64-0.19,1.15-0.46,1.54-0.79c0.38-0.33,0.67-0.71,0.85-1.12c0.18-0.41,0.27-0.83,0.27-1.27c0-0.79-0.27-1.45-0.81-1.96
			c-0.54-0.51-1.24-0.96-2.12-1.33c-0.87-0.37-1.87-0.72-2.98-1.04c-1.12-0.32-2.25-0.69-3.4-1.1c-1.15-0.41-2.29-0.9-3.4-1.48
			s-2.11-1.31-2.98-2.19s-1.58-1.97-2.12-3.25c-0.54-1.28-0.81-2.83-0.81-4.65c0-1.69,0.33-3.3,0.98-4.83
			c0.65-1.53,1.63-2.87,2.94-4.02c1.31-1.15,2.95-2.07,4.92-2.75c1.97-0.68,4.28-1.02,6.92-1.02c1.44,0,2.83,0.13,4.17,0.38
			c1.35,0.26,2.61,0.62,3.79,1.08s2.26,1.01,3.23,1.63c0.97,0.63,1.83,1.31,2.58,2.06L364.7,89.56z"/>
		<path class="st1" d="M385.31,80.83v25.31c0,1.97,0.45,3.5,1.35,4.58c0.9,1.08,2.22,1.62,3.96,1.62c1.31,0,2.53-0.27,3.67-0.81
			c1.14-0.54,2.25-1.29,3.33-2.27V80.83h11.92v39.89h-7.39c-1.49,0-2.46-0.67-2.92-2l-0.73-2.31c-0.77,0.74-1.56,1.42-2.38,2.02
			c-0.82,0.6-1.7,1.12-2.63,1.54c-0.94,0.42-1.94,0.76-3.02,1c-1.08,0.24-2.26,0.37-3.54,0.37c-2.18,0-4.11-0.38-5.79-1.13
			c-1.68-0.76-3.1-1.81-4.25-3.17s-2.03-2.96-2.62-4.81c-0.59-1.85-0.88-3.87-0.88-6.08V80.83H385.31z"/>
		<path class="st1" d="M418.78,120.72V80.83h7.08c0.59,0,1.08,0.05,1.48,0.15s0.73,0.26,1,0.48c0.27,0.22,0.47,0.51,0.62,0.87
			c0.14,0.36,0.26,0.79,0.37,1.31l0.65,3.73c1.46-2.26,3.1-4.04,4.92-5.35c1.82-1.31,3.81-1.96,5.96-1.96
			c1.82,0,3.28,0.44,4.39,1.31l-1.54,8.77c-0.1,0.54-0.31,0.92-0.62,1.13c-0.31,0.22-0.72,0.33-1.23,0.33
			c-0.44,0-0.95-0.06-1.54-0.17s-1.33-0.17-2.23-0.17c-3.13,0-5.59,1.67-7.38,5v24.46H418.78z"/>
		<path class="st1" d="M467.63,80.22c2.64,0,5.06,0.41,7.25,1.23c2.19,0.82,4.08,2.01,5.65,3.58s2.81,3.48,3.69,5.75
			s1.33,4.84,1.33,7.71c0,0.9-0.04,1.63-0.12,2.19c-0.08,0.56-0.22,1.01-0.42,1.35c-0.21,0.33-0.48,0.56-0.83,0.69
			c-0.35,0.13-0.79,0.19-1.33,0.19h-23c0.38,3.33,1.4,5.75,3.04,7.25c1.64,1.5,3.76,2.25,6.35,2.25c1.38,0,2.58-0.17,3.58-0.5
			c1-0.33,1.89-0.71,2.67-1.12c0.78-0.41,1.5-0.78,2.15-1.12c0.65-0.33,1.34-0.5,2.06-0.5c0.95,0,1.67,0.35,2.15,1.04l3.46,4.27
			c-1.23,1.41-2.56,2.56-3.98,3.44c-1.42,0.88-2.88,1.58-4.38,2.08c-1.5,0.5-3,0.85-4.5,1.04s-2.93,0.29-4.29,0.29
			c-2.79,0-5.42-0.46-7.87-1.37c-2.45-0.91-4.59-2.26-6.42-4.06c-1.83-1.79-3.28-4.03-4.35-6.69c-1.06-2.67-1.6-5.77-1.6-9.31
			c0-2.67,0.46-5.19,1.37-7.58s2.22-4.47,3.92-6.27c1.71-1.79,3.77-3.22,6.19-4.27C461.84,80.74,464.58,80.22,467.63,80.22z
			 M467.86,88.45c-2.28,0-4.06,0.65-5.35,1.94c-1.28,1.3-2.13,3.16-2.54,5.6h14.89c0-0.95-0.12-1.87-0.37-2.77
			c-0.24-0.9-0.64-1.7-1.19-2.4c-0.55-0.71-1.28-1.28-2.17-1.71C470.23,88.67,469.14,88.45,467.86,88.45z"/>
		<path class="st2" d="M543.33,64.68v10h-23v14.19h19.16v10.04h-19.16v21.81h-13.08V64.68H543.33z"/>
		<path class="st2" d="M563.79,69.91c0,0.95-0.19,1.84-0.58,2.67s-0.91,1.56-1.58,2.19c-0.67,0.63-1.44,1.13-2.33,1.5
			c-0.88,0.37-1.83,0.56-2.83,0.56c-0.97,0-1.88-0.19-2.73-0.56c-0.85-0.37-1.6-0.87-2.25-1.5c-0.65-0.63-1.17-1.36-1.54-2.19
			c-0.37-0.83-0.56-1.72-0.56-2.67c0-0.97,0.19-1.88,0.56-2.73c0.37-0.85,0.88-1.59,1.54-2.23c0.65-0.64,1.4-1.14,2.25-1.5
			c0.85-0.36,1.76-0.54,2.73-0.54c1,0,1.94,0.18,2.83,0.54c0.88,0.36,1.66,0.86,2.33,1.5c0.67,0.64,1.19,1.38,1.58,2.23
			C563.6,68.02,563.79,68.93,563.79,69.91z M562.4,80.83v39.89h-11.92V80.83H562.4z"/>
		<path class="st2" d="M586.02,121.34c-1.9,0-3.57-0.28-5.02-0.83c-1.45-0.55-2.67-1.33-3.65-2.35c-0.99-1.01-1.74-2.24-2.25-3.67
			c-0.51-1.44-0.77-3.04-0.77-4.81V89.06h-3.38c-0.62,0-1.14-0.2-1.58-0.6c-0.44-0.4-0.65-0.98-0.65-1.75v-4.65l6.35-1.23l2.35-9.73
			c0.31-1.23,1.18-1.85,2.62-1.85h6.23v11.65h9.69v8.16h-9.69v19.81c0,0.92,0.22,1.69,0.67,2.29c0.45,0.6,1.1,0.9,1.94,0.9
			c0.44,0,0.8-0.04,1.1-0.13s0.55-0.19,0.77-0.31c0.22-0.12,0.42-0.22,0.62-0.31s0.42-0.13,0.67-0.13c0.36,0,0.65,0.08,0.87,0.25
			c0.22,0.17,0.44,0.43,0.67,0.79l3.62,5.65c-1.54,1.15-3.27,2.02-5.19,2.6S588.07,121.34,586.02,121.34z"/>
		<path class="st2" d="M602.79,120.72V80.83h7.38c0.74,0,1.37,0.17,1.87,0.5s0.85,0.83,1.06,1.5l0.69,2.31c0.77-0.72,1.56-1.38,2.38-2
			c0.82-0.62,1.7-1.13,2.63-1.56c0.94-0.42,1.95-0.76,3.04-1c1.09-0.24,2.28-0.37,3.56-0.37c2.18,0,4.11,0.38,5.79,1.13
			c1.68,0.76,3.1,1.81,4.25,3.15c1.15,1.35,2.03,2.95,2.62,4.81s0.88,3.88,0.88,6.06v25.35h-11.92V95.37c0-1.95-0.45-3.47-1.35-4.56
			c-0.9-1.09-2.22-1.63-3.96-1.63c-1.31,0-2.54,0.28-3.69,0.85c-1.15,0.56-2.26,1.32-3.31,2.27v28.43H602.79z"/>
		<path class="st2" d="M664.49,80.22c2.64,0,5.06,0.41,7.25,1.23c2.19,0.82,4.08,2.01,5.65,3.58s2.81,3.48,3.69,5.75s1.33,4.84,1.33,7.71
			c0,0.9-0.04,1.63-0.12,2.19c-0.08,0.56-0.22,1.01-0.42,1.35c-0.21,0.33-0.48,0.56-0.83,0.69c-0.35,0.13-0.79,0.19-1.33,0.19h-23
			c0.38,3.33,1.4,5.75,3.04,7.25c1.64,1.5,3.76,2.25,6.35,2.25c1.38,0,2.58-0.17,3.58-0.5c1-0.33,1.89-0.71,2.67-1.12
			c0.78-0.41,1.5-0.78,2.15-1.12c0.65-0.33,1.34-0.5,2.06-0.5c0.95,0,1.67,0.35,2.15,1.04l3.46,4.27c-1.23,1.41-2.56,2.56-3.98,3.44
			c-1.42,0.88-2.88,1.58-4.38,2.08c-1.5,0.5-3,0.85-4.5,1.04s-2.93,0.29-4.29,0.29c-2.79,0-5.42-0.46-7.87-1.37
			c-2.45-0.91-4.59-2.26-6.42-4.06c-1.83-1.79-3.28-4.03-4.35-6.69c-1.06-2.67-1.6-5.77-1.6-9.31c0-2.67,0.46-5.19,1.37-7.58
			s2.22-4.47,3.92-6.27c1.71-1.79,3.77-3.22,6.19-4.27C658.7,80.74,661.44,80.22,664.49,80.22z M664.72,88.45
			c-2.28,0-4.06,0.65-5.35,1.94c-1.28,1.3-2.13,3.16-2.54,5.6h14.89c0-0.95-0.12-1.87-0.37-2.77c-0.24-0.9-0.64-1.7-1.19-2.4
			c-0.55-0.71-1.28-1.28-2.17-1.71C667.09,88.67,666,88.45,664.72,88.45z"/>
		<path class="st2" d="M713.64,89.56c-0.31,0.49-0.63,0.83-0.98,1.04c-0.35,0.21-0.79,0.31-1.33,0.31c-0.56,0-1.13-0.12-1.69-0.37
			c-0.56-0.24-1.17-0.51-1.83-0.79c-0.65-0.28-1.39-0.54-2.21-0.79c-0.82-0.24-1.76-0.37-2.81-0.37c-1.51,0-2.67,0.29-3.48,0.87
			c-0.81,0.58-1.21,1.38-1.21,2.4c0,0.74,0.26,1.36,0.79,1.85s1.22,0.92,2.1,1.29c0.87,0.37,1.86,0.72,2.96,1.06
			c1.1,0.33,2.23,0.71,3.38,1.12c1.15,0.41,2.28,0.89,3.38,1.44c1.1,0.55,2.09,1.23,2.96,2.04c0.87,0.81,1.57,1.79,2.1,2.94
			c0.53,1.15,0.79,2.54,0.79,4.15c0,1.98-0.36,3.8-1.08,5.46c-0.72,1.67-1.79,3.1-3.21,4.31c-1.42,1.21-3.18,2.14-5.27,2.81
			c-2.09,0.67-4.49,1-7.21,1c-1.36,0-2.72-0.13-4.08-0.38c-1.36-0.26-2.67-0.6-3.94-1.04c-1.27-0.44-2.44-0.96-3.52-1.56
			c-1.08-0.6-2-1.25-2.77-1.94l2.77-4.39c0.33-0.51,0.73-0.92,1.19-1.21c0.46-0.29,1.06-0.44,1.81-0.44c0.69,0,1.31,0.15,1.87,0.46
			c0.55,0.31,1.15,0.64,1.79,1c0.64,0.36,1.39,0.69,2.25,1c0.86,0.31,1.94,0.46,3.25,0.46c0.92,0,1.71-0.1,2.35-0.29
			c0.64-0.19,1.15-0.46,1.54-0.79c0.38-0.33,0.67-0.71,0.85-1.12c0.18-0.41,0.27-0.83,0.27-1.27c0-0.79-0.27-1.45-0.81-1.96
			c-0.54-0.51-1.24-0.96-2.12-1.33c-0.87-0.37-1.87-0.72-2.98-1.04c-1.12-0.32-2.25-0.69-3.4-1.1c-1.15-0.41-2.29-0.9-3.4-1.48
			s-2.11-1.31-2.98-2.19s-1.58-1.97-2.12-3.25c-0.54-1.28-0.81-2.83-0.81-4.65c0-1.69,0.33-3.3,0.98-4.83
			c0.65-1.53,1.63-2.87,2.94-4.02c1.31-1.15,2.95-2.07,4.92-2.75c1.97-0.68,4.28-1.02,6.92-1.02c1.44,0,2.83,0.13,4.17,0.38
			c1.35,0.26,2.61,0.62,3.79,1.08s2.26,1.01,3.23,1.63c0.97,0.63,1.83,1.31,2.58,2.06L713.64,89.56z"/>
		<path class="st2" d="M747.49,89.56c-0.31,0.49-0.63,0.83-0.98,1.04c-0.35,0.21-0.79,0.31-1.33,0.31c-0.56,0-1.13-0.12-1.69-0.37
			c-0.56-0.24-1.17-0.51-1.83-0.79c-0.65-0.28-1.39-0.54-2.21-0.79c-0.82-0.24-1.76-0.37-2.81-0.37c-1.51,0-2.67,0.29-3.48,0.87
			c-0.81,0.58-1.21,1.38-1.21,2.4c0,0.74,0.26,1.36,0.79,1.85s1.22,0.92,2.1,1.29c0.87,0.37,1.86,0.72,2.96,1.06
			c1.1,0.33,2.23,0.71,3.38,1.12c1.15,0.41,2.28,0.89,3.38,1.44c1.1,0.55,2.09,1.23,2.96,2.04c0.87,0.81,1.57,1.79,2.1,2.94
			c0.53,1.15,0.79,2.54,0.79,4.15c0,1.98-0.36,3.8-1.08,5.46c-0.72,1.67-1.79,3.1-3.21,4.31c-1.42,1.21-3.18,2.14-5.27,2.81
			c-2.09,0.67-4.49,1-7.21,1c-1.36,0-2.72-0.13-4.08-0.38c-1.36-0.26-2.67-0.6-3.94-1.04c-1.27-0.44-2.44-0.96-3.52-1.56
			c-1.08-0.6-2-1.25-2.77-1.94l2.77-4.39c0.33-0.51,0.73-0.92,1.19-1.21c0.46-0.29,1.06-0.44,1.81-0.44c0.69,0,1.31,0.15,1.87,0.46
			c0.55,0.31,1.15,0.64,1.79,1c0.64,0.36,1.39,0.69,2.25,1c0.86,0.31,1.94,0.46,3.25,0.46c0.92,0,1.71-0.1,2.35-0.29
			c0.64-0.19,1.15-0.46,1.54-0.79c0.38-0.33,0.67-0.71,0.85-1.12c0.18-0.41,0.27-0.83,0.27-1.27c0-0.79-0.27-1.45-0.81-1.96
			c-0.54-0.51-1.24-0.96-2.12-1.33c-0.87-0.37-1.87-0.72-2.98-1.04c-1.12-0.32-2.25-0.69-3.4-1.1c-1.15-0.41-2.29-0.9-3.4-1.48
			s-2.11-1.31-2.98-2.19s-1.58-1.97-2.12-3.25c-0.54-1.28-0.81-2.83-0.81-4.65c0-1.69,0.33-3.3,0.98-4.83
			c0.65-1.53,1.63-2.87,2.94-4.02c1.31-1.15,2.95-2.07,4.92-2.75c1.97-0.68,4.28-1.02,6.92-1.02c1.44,0,2.83,0.13,4.17,0.38
			c1.35,0.26,2.61,0.62,3.79,1.08s2.26,1.01,3.23,1.63c0.97,0.63,1.83,1.31,2.58,2.06L747.49,89.56z"/>
	</g>
</g>
</svg>
